<?xml version="1.0" encoding="UTF-8"?>
<!DOCTYPE svg PUBLIC "-//W3C//DTD SVG 1.1//EN" "http://www.w3.org/Graphics/SVG/1.1/DTD/svg11.dtd">
<svg width="729" height="230" xmlns="http://www.w3.org/2000/svg" x-original-source="participant Scene (client) as C
participant Kernel (server) as S
C->S: RequestModule {moduleName}
S->C: ModuleLoadedNotification {moduleId + procedures[]}
C->C: Create wrapper for moduleId using all the exposed procedures"><defs><marker viewBox="0 0 5 5" markerWidth="5" markerHeight="5" orient="auto" refX="5" refY="2.5" id="markerArrowBlock"><path d="M 0 0 L 5 2.5 L 0 5 z"></path></marker><marker viewBox="0 0 9.6 16" markerWidth="4" markerHeight="16" orient="auto" refX="9.6" refY="8" id="markerArrowOpen"><path d="M 9.6,8 1.92,16 0,13.7 5.76,8 0,2.286 1.92,0 9.6,8 z"></path></marker></defs><rect x="10" y="10" width="139" height="33" style="stroke-width: 2px;" stroke="#000000" fill="#ffffff"></rect><text x="20" y="33" style="font: 14px Menlo, Monaco, &quot;Courier New&quot;, monospace;" text-anchor="start"><tspan x="20" y="33">Scene (client)</tspan></text><rect x="10" y="167" width="139" height="33" style="stroke-width: 2px;" stroke="#000000" fill="#ffffff"></rect><text x="20" y="190" style="font: 14px Menlo, Monaco, &quot;Courier New&quot;, monospace;" text-anchor="start"><tspan x="20" y="190">Scene (client)</tspan></text><line x1="79" x2="79" y1="43" y2="167" style="stroke-width: 2px;" stroke="#000000" fill="none"></line><rect x="552" y="10" width="147" height="33" style="stroke-width: 2px;" stroke="#000000" fill="#ffffff"></rect><text x="562" y="33" style="font: 14px Menlo, Monaco, &quot;Courier New&quot;, monospace;" text-anchor="start"><tspan x="562" y="33">Kernel (server)</tspan></text><rect x="552" y="167" width="147" height="33" style="stroke-width: 2px;" stroke="#000000" fill="#ffffff"></rect><text x="562" y="190" style="font: 14px Menlo, Monaco, &quot;Courier New&quot;, monospace;" text-anchor="start"><tspan x="562" y="190">Kernel (server)</tspan></text><line x1="625" x2="625" y1="43" y2="167" style="stroke-width: 2px;" stroke="#000000" fill="none"></line><text x="242" y="78" style="font: 14px Menlo, Monaco, &quot;Courier New&quot;, monospace;" text-anchor="start"><tspan x="242" y="78">RequestModule {moduleName}</tspan></text><line x1="79" x2="625" y1="83" y2="83" style="stroke-width: 2px;" stroke="#000000" fill="none" marker-end="url(#markerArrowBlock)"></line><text x="141" y="113" style="font: 14px Menlo, Monaco, &quot;Courier New&quot;, monospace;" text-anchor="start"><tspan x="141" y="113">ModuleLoadedNotification {moduleId + procedures[]}</tspan></text><line x1="625" x2="79" y1="118" y2="118" style="stroke-width: 2px;" stroke="#000000" fill="none" marker-end="url(#markerArrowBlock)"></line><line x1="79" x2="99" y1="133" y2="133" style="stroke-width: 2px;" stroke="#000000" fill="none"></line><line x1="99" x2="99" y1="133" y2="152" style="stroke-width: 2px;" stroke="#000000" fill="none"></line><line x1="99" x2="79" y1="152" y2="152" style="stroke-width: 2px;" stroke="#000000" fill="none" marker-end="url(#markerArrowBlock)"></line><text x="104" y="149" style="font: 14px Menlo, Monaco, &quot;Courier New&quot;, monospace;" text-anchor="start"><tspan x="104" y="149">Create wrapper for moduleId using all the exposed procedures</tspan></text></svg>