<?xml version="1.0" encoding="UTF-8"?>
<!DOCTYPE svg PUBLIC "-//W3C//DTD SVG 1.1//EN" "http://www.w3.org/Graphics/SVG/1.1/DTD/svg11.dtd">
<svg width="541" height="196" xmlns="http://www.w3.org/2000/svg" x-original-source="participant Scene (client) as C
participant Kernel (server) as S
C->S: Request {moduleId, procedureId, payload}
S->C: Response {messageId, payload}"><defs><marker viewBox="0 0 5 5" markerWidth="5" markerHeight="5" orient="auto" refX="5" refY="2.5" id="markerArrowBlock"><path d="M 0 0 L 5 2.5 L 0 5 z"></path></marker><marker viewBox="0 0 9.6 16" markerWidth="4" markerHeight="16" orient="auto" refX="9.6" refY="8" id="markerArrowOpen"><path d="M 9.6,8 1.92,16 0,13.7 5.76,8 0,2.286 1.92,0 9.6,8 z"></path></marker></defs><rect x="10" y="10" width="139" height="33" style="stroke-width: 2px;" stroke="#000000" fill="#ffffff"></rect><text x="20" y="33" style="font: 14px Menlo, Monaco, &quot;Courier New&quot;, monospace;" text-anchor="start"><tspan x="20" y="33">Scene (client)</tspan></text><rect x="10" y="133" width="139" height="33" style="stroke-width: 2px;" stroke="#000000" fill="#ffffff"></rect><text x="20" y="156" style="font: 14px Menlo, Monaco, &quot;Courier New&quot;, monospace;" text-anchor="start"><tspan x="20" y="156">Scene (client)</tspan></text><line x1="79" x2="79" y1="43" y2="133" style="stroke-width: 2px;" stroke="#000000" fill="none"></line><rect x="364" y="10" width="147" height="33" style="stroke-width: 2px;" stroke="#000000" fill="#ffffff"></rect><text x="374" y="33" style="font: 14px Menlo, Monaco, &quot;Courier New&quot;, monospace;" text-anchor="start"><tspan x="374" y="33">Kernel (server)</tspan></text><rect x="364" y="133" width="147" height="33" style="stroke-width: 2px;" stroke="#000000" fill="#ffffff"></rect><text x="374" y="156" style="font: 14px Menlo, Monaco, &quot;Courier New&quot;, monospace;" text-anchor="start"><tspan x="374" y="156">Kernel (server)</tspan></text><line x1="437" x2="437" y1="43" y2="133" style="stroke-width: 2px;" stroke="#000000" fill="none"></line><text x="89" y="78" style="font: 14px Menlo, Monaco, &quot;Courier New&quot;, monospace;" text-anchor="start"><tspan x="89" y="78">Request {moduleId, procedureId, payload}</tspan></text><line x1="79" x2="437" y1="83" y2="83" style="stroke-width: 2px;" stroke="#000000" fill="none" marker-end="url(#markerArrowBlock)"></line><text x="136" y="113" style="font: 14px Menlo, Monaco, &quot;Courier New&quot;, monospace;" text-anchor="start"><tspan x="136" y="113">Response {messageId, payload}</tspan></text><line x1="437" x2="79" y1="118" y2="118" style="stroke-width: 2px;" stroke="#000000" fill="none" marker-end="url(#markerArrowBlock)"></line></svg>